<?xml version="1.0" encoding="UTF-8"?>
<!DOCTYPE svg PUBLIC "-//W3C//DTD SVG 1.1//EN" "http://www.w3.org/Graphics/SVG/1.1/DTD/svg11.dtd">
<!-- Creator: CorelDRAW -->
<svg xmlns="http://www.w3.org/2000/svg" xml:space="preserve" width="47.7245mm" height="45.9298mm" version="1.1" style="shape-rendering:geometricPrecision; text-rendering:geometricPrecision; image-rendering:optimizeQuality; fill-rule:evenodd; clip-rule:evenodd"
viewBox="0 0 238.62 229.65"
 xmlns:xlink="http://www.w3.org/1999/xlink"
 xmlns:xodm="http://www.corel.com/coreldraw/odm/2003">
 <defs>
  <style type="text/css">
   <![CDATA[
    .fil0 {fill:black;fill-rule:nonzero}
   ]]>
  </style>
 </defs>
 <g id="Layer_x0020_1">
  <metadata id="CorelCorpID_0Corel-Layer"/>
  <g id="_678622144">
   <path id="_678622408" class="fil0" d="M220.15 134.64c-17.24,7.58 -41.4,7.11 -67.6,6.6 -6.22,-0.12 -12.56,-0.24 -20.37,-0.24 -35.2,0 -67.13,-2.52 -90.29,-6.59 -25.43,-4.47 -41.16,-11.7 -41.16,-20.62 0,-8.92 15.73,-16.15 41.16,-20.62 23.16,-4.07 55.09,-6.59 90.29,-6.59 7.64,0 13.44,-0.09 19.14,-0.18 26.71,-0.42 51.32,-0.8 68.99,6.54 6.34,2.63 10.96,5.86 13.96,9.39 2.96,3.5 4.39,7.31 4.35,11.22 -0.03,3.87 -1.5,7.63 -4.32,11.08 -3.09,3.79 -7.86,7.24 -14.16,10.01l0 0zm-67.44 -3.3c25.05,0.49 48.16,0.94 63.45,-5.78 4.85,-2.13 8.37,-4.6 10.47,-7.18 1.37,-1.68 2.09,-3.35 2.1,-4.91 0.01,-1.51 -0.65,-3.12 -2.02,-4.74 -2,-2.36 -5.37,-4.63 -10.19,-6.64 -15.81,-6.57 -39.41,-6.2 -65.03,-5.8 -6.93,0.11 -13.99,0.22 -19.3,0.22 -34.65,0 -65.97,2.46 -88.58,6.44 -20.35,3.58 -32.93,7.47 -32.93,10.84 0,3.36 12.58,7.26 32.93,10.84 22.62,3.98 53.93,6.44 88.58,6.44 5.97,0 13.32,0.14 20.52,0.28l0 0z"/>
   <path id="_678621880" class="fil0" d="M148.3 94.75l-49.69 -74.9 -6.12 -7.22 -0.45 -0.64c-0.56,-0.92 -1.82,-1.45 -3.48,-1.75 -2.2,-0.4 -4.98,-0.37 -7.96,-0.2 0.1,1.13 0.73,2.83 1.89,5.11l0.17 0.41c6.37,15.97 11.72,30.43 15.88,43.15 4.22,12.89 7.29,24.2 9.06,33.71l-9.74 1.79c-1.68,-8.98 -4.65,-19.87 -8.75,-32.43 -4.14,-12.65 -9.36,-26.81 -15.53,-42.27 -2.17,-4.3 -3.11,-7.93 -2.84,-10.89 0.4,-4.35 2.79,-7.09 7.17,-8.25l0.93 -0.15c4.04,-0.27 7.98,-0.36 11.51,0.29 4.15,0.76 7.61,2.5 9.87,5.92l6.15 7.25 0.35 0.47 49.86 75.15 -8.27 5.47 0 -0z"/>
   <path id="_678622000" class="fil0" d="M156.57 140.37l-49.86 75.15 -0.35 0.47 -6.15 7.25c-2.27,3.42 -5.72,5.16 -9.87,5.92 -3.53,0.65 -7.47,0.56 -11.51,0.29l-0.93 -0.15c-4.38,-1.16 -6.77,-3.9 -7.17,-8.25 -0.27,-2.96 0.67,-6.59 2.84,-10.89 6.17,-15.47 11.39,-29.62 15.53,-42.27 4.11,-12.56 7.07,-23.44 8.75,-32.43l9.74 1.79c-1.78,9.51 -4.85,20.82 -9.06,33.71 -4.16,12.72 -9.5,27.18 -15.88,43.15l-0.17 0.41c-1.16,2.29 -1.79,3.99 -1.89,5.11 2.98,0.17 5.77,0.2 7.96,-0.2 1.66,-0.31 2.93,-0.84 3.48,-1.75l0.45 -0.64 6.12 -7.22 49.69 -74.9 8.27 5.47 0 -0z"/>
   <path id="_678621784" class="fil0" d="M38.1 99.62c-3.96,-4.09 -9.78,-9.95 -15.98,-14.39 -3.18,-2.28 -6.41,-4.16 -9.38,-5.13 1.17,1.71 2.57,3.62 3.99,5.56 3.48,4.75 7.03,9.6 8.43,13.22l-9.24 3.57c-0.91,-2.36 -4.08,-6.69 -7.19,-10.93 -3.01,-4.11 -5.97,-8.15 -7.43,-11.23 -2.11,-4.46 -1.85,-7.96 2.28,-9.92l0.89 -0.31c7.61,-1.95 15.9,1.71 23.43,7.1 6.78,4.85 13.04,11.16 17.3,15.55l-7.1 6.91z"/>
   <path id="_678622024" class="fil0" d="M45.2 132.86c-4.26,4.39 -10.52,10.7 -17.3,15.55 -7.53,5.39 -15.81,9.05 -23.43,7.1l-0.89 -0.31c-4.13,-1.96 -4.39,-5.45 -2.28,-9.92 1.46,-3.08 4.42,-7.12 7.43,-11.23 3.1,-4.24 6.28,-8.57 7.19,-10.93l9.24 3.57c-1.4,3.61 -4.95,8.47 -8.43,13.22 -1.42,1.93 -2.82,3.85 -3.99,5.56 2.97,-0.96 6.2,-2.85 9.38,-5.13 6.2,-4.44 12.02,-10.3 15.98,-14.39l7.1 6.91z"/>
   <path id="_678622168" class="fil0" d="M207.74 89.57c7.03,15.88 6.89,31.77 0,47.65l-9.08 -3.92c5.75,-13.24 5.86,-26.49 0,-39.73l9.08 -4z"/>
  </g>
 </g>
</svg>
