<?xml version="1.0" encoding="UTF-8"?>
<!DOCTYPE svg PUBLIC "-//W3C//DTD SVG 1.1//EN" "http://www.w3.org/Graphics/SVG/1.1/DTD/svg11.dtd">
<!-- Creator: CorelDRAW -->
<svg xmlns="http://www.w3.org/2000/svg" xml:space="preserve" width="45.8969mm" height="45.8966mm" version="1.1" style="shape-rendering:geometricPrecision; text-rendering:geometricPrecision; image-rendering:optimizeQuality; fill-rule:evenodd; clip-rule:evenodd"
viewBox="0 0 296.25 296.25"
 xmlns:xlink="http://www.w3.org/1999/xlink"
 xmlns:xodm="http://www.corel.com/coreldraw/odm/2003">
 <defs>
  <style type="text/css">
   <![CDATA[
    .fil0 {fill:black}
   ]]>
  </style>
 </defs>
 <g id="Layer_x0020_1">
  <metadata id="CorelCorpID_0Corel-Layer"/>
  <path class="fil0" d="M296.25 148.12c0,-81.79 -66.33,-148.12 -148.13,-148.12 -81.8,0 -148.13,66.33 -148.13,148.12 0,81.8 66.33,148.13 148.13,148.13 81.79,0 148.13,-66.34 148.13,-148.13zm-148.13 -136.95c75.62,0 136.95,61.33 136.95,136.95 0,75.62 -61.33,136.95 -136.95,136.95 -75.62,0 -136.96,-61.33 -136.96,-136.95 0,-75.62 61.33,-136.95 136.96,-136.95zm-53.11 213.43l9.95 -0 0 -57.39 110.72 0c2.75,0 4.98,-2.23 4.98,-4.98 0,-0.86 -0.22,-1.72 -0.65,-2.47l-15.68 -27.39 15.65 -27.39c0.43,-0.76 0.67,-1.62 0.67,-2.49 0,-0.87 -0.23,-1.73 -0.66,-2.49 -0.88,-1.53 -2.52,-2.47 -4.29,-2.47l-115.69 0c-2.75,0 -4.98,2.23 -4.98,4.98l0 122.08zm112.11 -67.35l-102.15 -0.01 0 -49.71 102.15 0.01 -12.82 22.36c-0.43,0.75 -0.65,1.61 -0.65,2.47 0,0.86 0.22,1.72 0.65,2.47l12.81 22.4z"/>
 </g>
</svg>
