<?xml version="1.0" encoding="UTF-8"?>
<!DOCTYPE svg PUBLIC "-//W3C//DTD SVG 1.1//EN" "http://www.w3.org/Graphics/SVG/1.1/DTD/svg11.dtd">
<!-- Creator: CorelDRAW -->
<svg xmlns="http://www.w3.org/2000/svg" xml:space="preserve" width="45.9293mm" height="45.9297mm" version="1.1" style="shape-rendering:geometricPrecision; text-rendering:geometricPrecision; image-rendering:optimizeQuality; fill-rule:evenodd; clip-rule:evenodd"
viewBox="0 0 253.58 253.58"
 xmlns:xlink="http://www.w3.org/1999/xlink"
 xmlns:xodm="http://www.corel.com/coreldraw/odm/2003">
 <defs>
  <style type="text/css">
   <![CDATA[
    .fil0 {fill:black;fill-rule:nonzero}
   ]]>
  </style>
 </defs>
 <g id="Layer_x0020_1">
  <metadata id="CorelCorpID_0Corel-Layer"/>
  <g id="_2793886841872">
   <path class="fil0" d="M100.37 200.75c0,-0 0,-0 0,-0 -55.43,0 -100.38,-44.95 -100.38,-100.37 0,-55.43 44.95,-100.38 100.38,-100.38 55.42,0 100.37,44.95 100.37,100.38 0,7.7 -0.89,15.39 -2.65,22.88l-10.25 -2.43c1.54,-6.7 2.33,-13.57 2.33,-20.44 0,-49.6 -40.22,-89.81 -89.81,-89.81 -49.59,0 -89.81,40.22 -89.81,89.81 0,49.59 40.22,89.81 89.81,89.81 6.88,0 13.75,-0.79 20.44,-2.33l2.43 10.25c-7.48,1.75 -15.18,2.65 -22.88,2.65l0 0z"/>
   <path class="fil0" d="M147.92 105.66l-47.55 0c-2.92,0 -5.28,-2.37 -5.28,-5.28l-0 -58.11 10.57 0 0 52.83 42.26 0 0 10.57z"/>
   <rect class="fil0" x="21.13" y="95.09" width="10.57" height="10.57"/>
   <rect class="fil0" x="95.09" y="169.05" width="10.57" height="10.57"/>
   <rect class="fil0" x="169.05" y="95.09" width="10.57" height="10.57"/>
   <rect class="fil0" x="158.49" y="58.11" width="10.57" height="10.57"/>
   <rect class="fil0" x="132.07" y="31.7" width="10.57" height="10.57"/>
   <rect class="fil0" x="95.09" y="21.13" width="10.57" height="10.57"/>
   <rect class="fil0" x="58.11" y="31.7" width="10.57" height="10.57"/>
   <rect class="fil0" x="31.7" y="58.11" width="10.57" height="10.57"/>
   <rect class="fil0" x="31.7" y="132.07" width="10.57" height="10.57"/>
   <rect class="fil0" x="58.11" y="158.49" width="10.57" height="10.57"/>
   <path class="fil0" d="M184.9 226.5c-9.11,-2.35 -15.85,-10.62 -15.85,-20.46l10.57 0c0,3.91 2.13,7.32 5.28,9.15l0 -20.39c-9.11,-2.35 -15.85,-10.62 -15.85,-20.46 0,-9.84 6.73,-18.12 15.85,-20.46l0 -3.31 10.57 0 0 3.31c9.11,2.35 15.85,10.62 15.85,20.46l-10.56 0c0,-3.91 -2.13,-7.33 -5.28,-9.15l0 20.39c9.11,2.35 15.85,10.62 15.85,20.46 0,9.84 -6.73,18.12 -15.85,20.46l0 3.31 -10.57 0 0 -3.31zm10.57 -11.31c3.16,-1.83 5.28,-5.24 5.28,-9.15 0,-3.91 -2.13,-7.32 -5.28,-9.15l0 18.3zm-10.57 -50c-3.16,1.83 -5.28,5.24 -5.28,9.15 0,3.91 2.13,7.33 5.28,9.15l0 -18.3z"/>
   <rect class="fil0" x="184.9" y="221.88" width="10.57" height="15.85"/>
   <rect class="fil0" x="184.9" y="142.64" width="10.57" height="15.85"/>
   <rect class="fil0" x="221.88" y="184.9" width="10.57" height="10.57"/>
   <rect class="fil0" x="147.92" y="184.9" width="10.57" height="10.57"/>
   <path class="fil0" d="M190.18 253.58c-35.01,-0 -63.4,-28.39 -63.4,-63.4 0,-35.01 28.39,-63.39 63.4,-63.39 35.01,0 63.4,28.39 63.4,63.39 0,35.01 -28.39,63.4 -63.4,63.4l0 0zm0 -116.22c-29.17,-0 -52.83,23.66 -52.83,52.83 0,29.17 23.66,52.83 52.83,52.83 29.17,0 52.83,-23.66 52.83,-52.83 0,-29.17 -23.66,-52.83 -52.83,-52.83l0 0z"/>
  </g>
 </g>
</svg>
