<?xml version="1.0" encoding="UTF-8"?>
<!DOCTYPE svg PUBLIC "-//W3C//DTD SVG 1.1//EN" "http://www.w3.org/Graphics/SVG/1.1/DTD/svg11.dtd">
<!-- Creator: CorelDRAW -->
<svg xmlns="http://www.w3.org/2000/svg" xml:space="preserve" width="45.0494mm" height="45.05mm" version="1.1" style="shape-rendering:geometricPrecision; text-rendering:geometricPrecision; image-rendering:optimizeQuality; fill-rule:evenodd; clip-rule:evenodd"
viewBox="0 0 329.86 329.87"
 xmlns:xlink="http://www.w3.org/1999/xlink"
 xmlns:xodm="http://www.corel.com/coreldraw/odm/2003">
 <defs>
  <style type="text/css">
   <![CDATA[
    .fil0 {fill:black}
   ]]>
  </style>
 </defs>
 <g id="Layer_x0020_1">
  <metadata id="CorelCorpID_0Corel-Layer"/>
  <path class="fil0" d="M250.55 195.71l-24.47 0c-3.27,0 -5.92,2.64 -5.92,5.91 0,3.27 2.65,5.92 5.91,5.92l24.47 0c3.27,0 5.91,-2.65 5.91,-5.92 0,-3.27 -2.65,-5.91 -5.91,-5.91zm-183.48 -183.88l48.93 0 18.82 0 150.98 0c0.12,-0.01 0.23,-0.01 0.35,-0.01 4.09,0 7.42,3.33 7.42,7.42 0,0.12 -0,0.23 -0.01,0.35l0 187.69 0 31.05 0 48.92 0 15.39 0 15.39 -61.56 0.01 0 -67.48c0,-3.27 -2.65,-5.92 -5.91,-5.92l-122.32 0c-3.26,0 -5.91,2.65 -5.91,5.91l0 67.48 -61.57 0.01 0 -298.55c-0,-0.08 -0,-0.16 -0,-0.25 0,-4.09 3.33,-7.42 7.42,-7.42 0.12,0 0.23,0 0.35,0.01l16.6 0 6.41 0zm48.88 -11.83l-48.83 0 -0.05 -0 -23.24 0c-10.7,0 -19.36,8.68 -19.36,19.37l-0 298.66 -18.55 0c-3.26,0 -5.91,2.65 -5.91,5.91 0,3.27 2.65,5.92 5.92,5.92l318.03 0c3.27,0 5.92,-2.65 5.92,-5.92 0,-3.27 -2.65,-5.91 -5.91,-5.91l-18.55 0 0 -15.4 0 -15.39 0 -48.93 0 -31.05 0 -187.9c0,-10.7 -8.67,-19.37 -19.37,-19.37l-170.03 -0 -0.05 0zm61.21 195.71l-24.47 0c-3.26,0 -5.91,2.64 -5.91,5.91 0,3.27 2.65,5.92 5.92,5.92l24.46 0c3.27,0 5.91,-2.65 5.91,-5.92 0,-3.27 -2.65,-5.91 -5.91,-5.91zm-73.39 0l-24.47 0c-3.26,0 -5.91,2.64 -5.91,5.91 0,3.27 2.65,5.92 5.91,5.92l24.46 0c3.27,0 5.92,-2.65 5.92,-5.92 0,-3.27 -2.65,-5.91 -5.92,-5.91zm146.78 -48.93l-24.47 0c-3.27,0 -5.91,2.65 -5.91,5.91 0,3.27 2.65,5.92 5.91,5.92l24.47 0c3.27,0 5.91,-2.65 5.91,-5.92 0,-3.27 -2.65,-5.91 -5.91,-5.91zm-73.39 0l-24.47 0c-3.27,0 -5.91,2.65 -5.91,5.91 0,3.27 2.65,5.92 5.92,5.92l24.46 0c3.27,0 5.91,-2.65 5.91,-5.92 0,-3.27 -2.65,-5.91 -5.91,-5.91zm-73.39 0l-24.47 0c-3.26,0 -5.91,2.65 -5.91,5.91 0,3.27 2.65,5.92 5.91,5.92l24.46 0c3.27,0 5.92,-2.65 5.92,-5.92 0,-3.27 -2.65,-5.91 -5.92,-5.91zm146.78 -48.93l-24.47 0c-3.27,0 -5.91,2.65 -5.91,5.91 0,3.27 2.65,5.91 5.91,5.91l24.47 0c3.27,0 5.91,-2.65 5.91,-5.91 0,-3.27 -2.65,-5.91 -5.91,-5.91zm-73.39 0l-24.47 0c-3.27,0 -5.91,2.65 -5.91,5.91 0,3.27 2.65,5.91 5.92,5.91l24.46 0c3.27,0 5.91,-2.65 5.91,-5.91 0,-3.27 -2.65,-5.91 -5.91,-5.91zm-73.39 0l-24.47 0c-3.27,0 -5.91,2.65 -5.91,5.91 0,3.27 2.65,5.91 5.91,5.91l24.46 0c3.27,0 5.92,-2.64 5.92,-5.91 0,-3.27 -2.65,-5.91 -5.92,-5.91zm146.78 -48.93l-24.47 0c-3.27,0 -5.92,2.64 -5.92,5.91 0,3.27 2.65,5.91 5.91,5.91l24.47 0c3.27,0 5.91,-2.65 5.91,-5.91 0,-3.27 -2.65,-5.91 -5.91,-5.91zm-73.39 0l-24.47 0c-3.26,0 -5.91,2.64 -5.91,5.91 0,3.27 2.65,5.91 5.92,5.91l24.46 0c3.27,0 5.91,-2.65 5.91,-5.91 0,-3.27 -2.65,-5.91 -5.91,-5.91zm-103.77 5.91c0,3.27 2.65,5.91 5.92,5.91l24.46 0c3.27,0 5.92,-2.65 5.92,-5.91 0,-3.27 -2.65,-5.92 -5.91,-5.91l-24.47 0c-3.26,0 -5.91,2.64 -5.91,5.91zm36.29 201.63l49.33 0 0 61.56 -49.33 0 0 -61.56zm61.16 61.56l0 -61.56 49.33 0 0 61.56 -49.33 0z"/>
 </g>
</svg>
