<?xml version="1.0" encoding="UTF-8"?>
<!DOCTYPE svg PUBLIC "-//W3C//DTD SVG 1.1//EN" "http://www.w3.org/Graphics/SVG/1.1/DTD/svg11.dtd">
<!-- Creator: CorelDRAW -->
<svg xmlns="http://www.w3.org/2000/svg" xml:space="preserve" width="42.5472mm" height="45.9297mm" version="1.1" style="shape-rendering:geometricPrecision; text-rendering:geometricPrecision; image-rendering:optimizeQuality; fill-rule:evenodd; clip-rule:evenodd"
viewBox="0 0 172.61 186.33"
 xmlns:xlink="http://www.w3.org/1999/xlink"
 xmlns:xodm="http://www.corel.com/coreldraw/odm/2003">
 <defs>
  <style type="text/css">
   <![CDATA[
    .fil0 {fill:black}
   ]]>
  </style>
 </defs>
 <g id="Layer_x0020_1">
  <metadata id="CorelCorpID_0Corel-Layer"/>
  <path class="fil0" d="M120.61 130.38c-2.19,0 -3.96,1.77 -3.96,3.96 0,2.19 1.77,3.96 3.96,3.96 2.19,0 3.96,-1.77 3.96,-3.96 0,-2.19 -1.77,-3.96 -3.96,-3.96zm-68.62 0c-2.19,0 -3.96,1.77 -3.96,3.96 0,2.19 1.77,3.96 3.96,3.96 2.19,0 3.96,-1.77 3.96,-3.96 0,-2.19 -1.77,-3.96 -3.96,-3.96zm116.65 -82.34l-9.76 0 0 -24.31c0,-13.1 -10.62,-23.72 -23.72,-23.72l-42.92 0 -12.8 0 -27.44 0 -9.58 0 -4.97 0c-13.1,0 -23.72,10.62 -23.72,23.72l-0 24.31 -9.76 0c-2.19,0 -3.96,1.78 -3.96,3.96 0,2.19 1.77,3.96 3.96,3.96l9.76 0 0 98.97c0,2.19 1.78,3.96 3.96,3.96l9.76 0 0 6.33c0,11.66 9.46,21.11 21.12,21.11 11.66,0 21.12,-9.45 21.12,-21.11l-0 -6.33 33.25 0 0 6.33c0,11.66 9.46,21.11 21.12,21.11 11.66,0 21.1,-9.46 21.12,-21.12l0.01 -6.33 9.76 0c2.19,0 3.96,-1.77 3.96,-3.96l0 -98.97 9.76 0c2.19,0 3.96,-1.77 3.96,-3.96 0,-2.19 -1.77,-3.96 -3.96,-3.96zm-89.31 -40.11l0.1 0 55.72 0c5.82,0 11.14,3.27 13.88,8.39l2.28 4.27 -130.04 0 2.28 -4.27c2.74,-5.12 8.05,-8.35 13.87,-8.4l4.98 0 0 0 2.29 0 7.28 0 0.1 -0 27.25 0zm-17.58 157.29c0,7.28 -5.91,13.19 -13.19,13.19 -7.29,0 -13.19,-5.91 -13.19,-13.19l-0.01 -6.33 26.39 0 0 6.33zm75.48 0c0,7.29 -5.91,13.19 -13.19,13.19 -7.29,0 -13.19,-5.91 -13.19,-13.19l0 -6.33 26.39 0 0 6.33zm13.72 -14.25l-129.32 0 0 -33.25 105.83 0c2.19,0 3.96,-1.77 3.96,-3.96 0,-2.19 -1.77,-3.96 -3.96,-3.96l-105.83 0 0 -81.28 129.32 0 0 122.46z"/>
 </g>
</svg>
