<svg width="81" height="19" viewBox="0 0 81 19" version="1.1" xmlns="http://www.w3.org/2000/svg" xmlns:xlink="http://www.w3.org/1999/xlink">
<title>Group</title>
<desc>Created using Figma</desc>
<g id="Canvas" transform="translate(41 262)">
<g id="Group">
<g id="Canvas">
<g id="Group">
<g id="Group">
<g id="Vector 2">
<g id="Vector">
<use xlink:href="#path0_fill" transform="translate(-5.46359 -262)"/>
</g>
</g>
<g id="Taxi">
<g id="Vector">
<use xlink:href="#path1_fill" transform="translate(3.40375 -257.082)" fill="#FFFFFF"/>
</g>
</g>
</g>
<g id="Buen">
<g id="Vector">
<use xlink:href="#path2_fill" transform="translate(-41 -256.814)"/>
</g>
</g>
</g>
</g>
</g>
</g>
<defs>
<path id="path0_fill" d="M 1.1909 19C 0.35006 19 -0.222548 18.1381 0.0835162 17.3491C 4.48958 5.99105 5.39453 0 11.057 0L 32.8822 0C 40.2471 0 40.7932 5.77908 45.3765 17.3373C 45.6903 18.1285 45.1177 19 44.2719 19L 1.1909 19Z"/>
<path id="path1_fill" d="M 7.0683 0.267912C 7.32024 0.267912 7.52552 0.343123 7.68415 0.493522C 7.84279 0.643921 7.9221 0.84133 7.9221 1.08575C 7.9221 1.33017 7.84279 1.52758 7.68415 1.67797C 7.52552 1.81898 7.32024 1.88948 7.0683 1.88948L 4.87083 1.88948L 4.87083 9.27821C 4.87083 9.52263 4.78218 9.72943 4.60489 9.89864C 4.42761 10.0585 4.20831 10.1384 3.94705 10.1384C 3.68579 10.1384 3.47117 10.0585 3.30321 9.89864C 3.13525 9.72943 3.05127 9.52263 3.05127 9.27821L 3.05127 1.88948L 0.853795 1.88948C 0.601855 1.88948 0.396572 1.81427 0.237943 1.66387C 0.0793135 1.51348 -4.52482e-09 1.31607 -4.52482e-09 1.07165C -4.52482e-09 0.836645 0.0793135 0.643921 0.237943 0.493522C 0.405902 0.343123 0.611186 0.267912 0.853795 0.267912L 7.0683 0.267912ZM 13.9178 2.45351C 14.1604 2.45351 14.361 2.5334 14.5197 2.69322C 14.6783 2.85303 14.7576 3.05984 14.7576 3.31365L 14.7576 9.27821C 14.7576 9.52263 14.6783 9.72943 14.5197 9.89864C 14.361 10.0585 14.1604 10.1384 13.9178 10.1384C 13.6752 10.1384 13.4746 10.0585 13.3159 9.89864C 13.1666 9.73883 13.0873 9.53673 13.078 9.29231C 12.8447 9.56493 12.5275 9.79994 12.1262 9.99735C 11.7343 10.1854 11.3191 10.2794 10.8805 10.2794C 10.2367 10.2794 9.65348 10.1149 9.13095 9.78584C 8.60841 9.44742 8.19318 8.9821 7.88525 8.38987C 7.58665 7.79765 7.43736 7.12553 7.43736 6.37348C 7.43736 5.62144 7.58665 4.94932 7.88525 4.35709C 8.18383 3.75548 8.58974 3.29015 9.10296 2.96113C 9.62549 2.62272 10.1993 2.45351 10.8245 2.45351C 11.2724 2.45351 11.6923 2.53811 12.0842 2.70732C 12.4762 2.86714 12.8074 3.07394 13.078 3.32775L 13.078 3.31365C 13.078 3.06923 13.1573 2.86714 13.3159 2.70732C 13.4746 2.53811 13.6752 2.45351 13.9178 2.45351ZM 11.0905 8.72829C 11.697 8.72829 12.1915 8.50739 12.5741 8.06556C 12.9567 7.61434 13.148 7.05031 13.148 6.37348C 13.148 5.69665 12.9567 5.13263 12.5741 4.68141C 12.1915 4.23019 11.697 4.00458 11.0905 4.00458C 10.4933 4.00458 10.0034 4.23019 9.62084 4.68141C 9.23825 5.13263 9.04698 5.69665 9.04698 6.37348C 9.04698 7.05031 9.23358 7.61434 9.60684 8.06556C 9.9894 8.50739 10.484 8.72829 11.0905 8.72829ZM 22.0925 8.79879C 22.2138 8.94919 22.2744 9.1184 22.2744 9.30642C 22.2744 9.54142 22.1858 9.74354 22.0085 9.91274C 21.8312 10.0819 21.6353 10.1666 21.4206 10.1666C 21.1501 10.1666 20.9214 10.0444 20.7348 9.79994L 19.0552 7.69894L 17.4176 9.79994C 17.3336 9.91274 17.231 10.0021 17.1097 10.0678C 16.9977 10.1243 16.8764 10.1525 16.7458 10.1525C 16.5498 10.1525 16.3632 10.0772 16.1859 9.92684C 16.0086 9.77644 15.92 9.60253 15.92 9.40512C 15.92 9.2171 15.9899 9.0385 16.1299 8.8693L 18.0754 6.47219L 16.0599 3.94818C 15.9386 3.79778 15.878 3.62857 15.878 3.44055C 15.878 3.20555 15.962 3.00814 16.1299 2.84833C 16.3072 2.67912 16.5078 2.59452 16.7318 2.59452C 17.0024 2.59452 17.231 2.71203 17.4176 2.94703L 19.1392 5.10443L 20.7348 2.97523C 20.9121 2.72142 21.1361 2.59452 21.4066 2.59452C 21.6306 2.59452 21.8172 2.67441 21.9665 2.83423C 22.1251 2.98462 22.2045 3.15854 22.2045 3.35595C 22.2045 3.56275 22.1391 3.74606 22.0085 3.90587L 20.077 6.27478L 22.0925 8.79879ZM 24.98 9.27821C 24.98 9.52263 24.9007 9.72943 24.742 9.89864C 24.5836 10.0585 24.3829 10.1384 24.1402 10.1384C 23.8977 10.1384 23.697 10.0585 23.5383 9.89864C 23.3798 9.72943 23.3005 9.52263 23.3005 9.27821L 23.3005 3.45465C 23.3005 3.21024 23.3798 3.00814 23.5383 2.84833C 23.697 2.67912 23.8977 2.59452 24.1402 2.59452C 24.3829 2.59452 24.5836 2.67912 24.742 2.84833C 24.9007 3.00814 24.98 3.21024 24.98 3.45465L 24.98 9.27821ZM 24.1262 1.67797C 23.809 1.67797 23.585 1.62628 23.4543 1.52287C 23.3239 1.41946 23.2585 1.23615 23.2585 0.972943L 23.2585 0.705031C 23.2585 0.441828 23.3284 0.25852 23.4683 0.155107C 23.6083 0.0516945 23.8322 1.13049e-07 24.1402 1.13049e-07C 24.4668 1.13049e-07 24.6955 0.0516945 24.826 0.155107C 24.9567 0.25852 25.022 0.441828 25.022 0.705031L 25.022 0.972943C 25.022 1.24556 24.952 1.43356 24.812 1.53697C 24.6815 1.63096 24.4528 1.67797 24.1262 1.67797Z"/>
<path id="path2_fill" d="M 5.87859 4.3994C 6.37314 4.59681 6.77437 4.89763 7.0823 5.30184C 7.39957 5.70605 7.55818 6.22777 7.55818 6.86701C 7.55818 7.98566 7.24093 8.76588 6.60641 9.20771C 5.97191 9.64954 5.21609 9.87044 4.33896 9.87044L 0.853795 9.87044C 0.611202 9.87044 0.405903 9.79055 0.237943 9.63073C 0.0793302 9.46152 3.11308e-08 9.25472 3.11308e-08 9.0103L 3.11308e-08 0.860138C 3.11308e-08 0.615719 0.0793302 0.413626 0.237943 0.253811C 0.405903 0.0846036 0.611202 1.82338e-07 0.853795 1.82338e-07L 4.38095 1.82338e-07C 6.15387 1.82338e-07 7.04031 0.836645 7.04031 2.50991C 7.04031 2.93293 6.93768 3.30894 6.73238 3.63796C 6.53643 3.95757 6.25185 4.21138 5.87859 4.3994ZM 5.22074 2.82013C 5.22074 2.4347 5.12277 2.148 4.92682 1.95999C 4.74021 1.76258 4.47427 1.66387 4.12901 1.66387L 1.81956 1.66387L 1.81956 3.86357L 4.171 3.86357C 4.45093 3.86357 4.69355 3.76958 4.89882 3.58156C 5.11345 3.39354 5.22074 3.13973 5.22074 2.82013ZM 4.33896 8.24887C 4.77753 8.24887 5.11812 8.13136 5.36071 7.89635C 5.61265 7.66135 5.73862 7.31823 5.73862 6.86701C 5.73862 6.31237 5.594 5.95047 5.30472 5.78126C 5.01547 5.61205 4.66088 5.52745 4.24098 5.52745L 1.81956 5.52745L 1.81956 8.24887L 4.33896 8.24887ZM 14.5883 2.3266C 14.8309 2.3266 15.0316 2.41121 15.1902 2.58042C 15.3488 2.74023 15.4281 2.94232 15.4281 3.18674L 15.4281 6.7683C 15.4281 7.78355 15.1482 8.57789 14.5883 9.15131C 14.0378 9.72473 13.2493 10.0114 12.2229 10.0114C 11.1965 10.0114 10.408 9.72473 9.85747 9.15131C 9.30693 8.57789 9.03167 7.78355 9.03167 6.7683L 9.03167 3.18674C 9.03167 2.94232 9.11098 2.74023 9.26962 2.58042C 9.42823 2.41121 9.62886 2.3266 9.87147 2.3266C 10.1141 2.3266 10.3147 2.41121 10.4733 2.58042C 10.6319 2.74023 10.7113 2.94232 10.7113 3.18674L 10.7113 6.7683C 10.7113 7.34172 10.8372 7.76945 11.0892 8.05146C 11.3411 8.32408 11.719 8.46038 12.2229 8.46038C 12.7361 8.46038 13.1187 8.32408 13.3706 8.05146C 13.6226 7.76945 13.7485 7.34172 13.7485 6.7683L 13.7485 3.18674C 13.7485 2.94232 13.8278 2.74023 13.9865 2.58042C 14.1451 2.41121 14.3457 2.3266 14.5883 2.3266ZM 23.9649 5.92226C 23.9556 6.14787 23.8669 6.33118 23.6989 6.47219C 23.531 6.61319 23.335 6.6837 23.1111 6.6837L 18.4922 6.6837C 18.6042 7.23833 18.8608 7.67545 19.262 7.99506C 19.6632 8.30527 20.1158 8.46038 20.6197 8.46038C 21.0023 8.46038 21.3008 8.42747 21.5155 8.36167C 21.7302 8.28646 21.8981 8.21127 22.0193 8.13606C 22.1501 8.05146 22.2385 7.99506 22.2853 7.96686C 22.4532 7.88225 22.6119 7.83995 22.7612 7.83995C 22.9571 7.83995 23.1251 7.91045 23.265 8.05146C 23.405 8.19247 23.475 8.35696 23.475 8.54498C 23.475 8.79879 23.3443 9.02911 23.0831 9.23591C 22.8219 9.45213 22.472 9.63544 22.0333 9.78584C 21.5947 9.93624 21.1515 10.0114 20.7037 10.0114C 19.9198 10.0114 19.234 9.84695 18.6462 9.51793C 18.0676 9.1889 17.6197 8.73768 17.3025 8.16426C 16.9852 7.58143 16.8266 6.92812 16.8266 6.20428C 16.8266 5.39583 16.9945 4.68612 17.3305 4.07508C 17.6664 3.46405 18.1096 2.99873 18.6601 2.67912C 19.2107 2.3501 19.7985 2.1856 20.4237 2.1856C 21.0396 2.1856 21.6182 2.35481 22.1593 2.69322C 22.7099 3.03164 23.1483 3.48756 23.475 4.06098C 23.8017 4.6344 23.9649 5.25483 23.9649 5.92226ZM 20.4237 3.73667C 19.3413 3.73667 18.7021 4.249 18.5062 5.27363L 22.1733 5.27363L 22.1733 5.17493C 22.1361 4.78011 21.9446 4.4417 21.5994 4.15969C 21.2543 3.87767 20.8624 3.73667 20.4237 3.73667ZM 29.3688 2.1856C 30.3205 2.1856 30.9784 2.47232 31.3423 3.04574C 31.7062 3.60976 31.8882 4.39469 31.8882 5.40054L 31.8882 9.0103C 31.8882 9.25472 31.8087 9.46152 31.6502 9.63073C 31.4915 9.79055 31.2908 9.87044 31.0484 9.87044C 30.8057 9.87044 30.605 9.79055 30.4465 9.63073C 30.2878 9.46152 30.2086 9.25472 30.2086 9.0103L 30.2086 5.40054C 30.2086 4.88353 30.1011 4.47929 29.8866 4.18789C 29.6719 3.88707 29.3033 3.73667 28.7809 3.73667C 28.2395 3.73667 27.8151 3.89648 27.5072 4.21609C 27.1993 4.5263 27.0453 4.92112 27.0453 5.40054L 27.0453 9.0103C 27.0453 9.25472 26.9658 9.46152 26.8074 9.63073C 26.6487 9.79055 26.448 9.87044 26.2055 9.87044C 25.9628 9.87044 25.7621 9.79055 25.6037 9.63073C 25.445 9.46152 25.3657 9.25472 25.3657 9.0103L 25.3657 3.18674C 25.3657 2.94232 25.445 2.74023 25.6037 2.58042C 25.7621 2.41121 25.9628 2.3266 26.2055 2.3266C 26.448 2.3266 26.6487 2.41121 26.8074 2.58042C 26.9658 2.74023 27.0453 2.94232 27.0453 3.18674L 27.0453 3.42645C 27.2973 3.08804 27.6237 2.79663 28.0251 2.55221C 28.4355 2.3078 28.8834 2.1856 29.3688 2.1856Z"/>
</defs>
</svg>
